<svg id="Layer_1" data-name="Layer 1" xmlns="http://www.w3.org/2000/svg" viewBox="0 0 664 664"><defs><style>.cls-1{fill:#9257ff;}.cls-2{fill:#fada0f;}.cls-3{fill:#fafbfb;}</style></defs><title>画板 2 副本@3x-2</title><rect class="cls-1" width="664" height="664"/><path class="cls-2" d="M394.38,84.17c4-3.5,7.38-7.74,11.84-10.69,3.08-1.37,4.81,1.3,6.49,3.36-6.77,33.87-12.53,67.94-18.82,101.9-.28,2.71-1.68,6.46,1.39,8.09q29.94,21.18,60.1,42.07c3.52,2.5,7.33,4.63,10.48,7.63a30.47,30.47,0,0,1,.18,5.06c-5.93,1.76-12.14,1.61-18.23,2.24-23.27,2.43-46.76,3.33-69.88,6.82-8.86,22.81-18,45.52-26.73,68.4a25.25,25.25,0,0,1-2.54,5c-2,1.33-4.48.46-6.69.57-1.21-28.29.67-56.69-1.46-85C338.1,222,327,205.41,310.88,197.32c-9-4.77-19.32-6.5-29.43-5.94a86.61,86.61,0,0,1-4.36-10c-9.68-25.76-19.6-51.44-29.46-77.14-1.47-3.1.66-5.81,2.86-7.77,6.6,2.29,12,6.87,18.1,10.18q27.53,16.9,55.05,33.74c2.38,1.37,5.72,3.8,7.93.78Q363,112.74,394.38,84.17Z"/><path class="cls-2" d="M487.12,113.31c1.71-2,4.43-1.52,6.75-1.8,5,13.64,8.24,27.82,12.42,41.7,1.42,5.65,3.79,11.13,4.25,17,.44,2.15-1.75,4.1-3.82,3.82-22.13.16-44.23-1.73-66.38-1.91a50.28,50.28,0,0,1-12.86-1.52c.12-2.37,0-5.07,2.23-6.55,10.19-9.09,20.66-17.89,30.74-27.1Q473.68,125,487.12,113.31Z"/><path class="cls-2" d="M193.37,138.94c1.51-3,5.86-3,7.79-.42,11.12,11.56,22.13,23.25,33.63,34.43l-1,1.33,1.89-1.53c.06,2.31.11,4.62.11,6.92-14.12.74-28.27.21-42.39.42-7.12,0-14.28.25-21.36-.7-.06-5.08,3.09-9.18,5.5-13.36C182.93,157.08,187.58,147.65,193.37,138.94Z"/><path class="cls-3" d="M265.81,220.27c12.27-6.62,28.41-4.88,39.09,4a36.68,36.68,0,0,1,12.28,27.06c.06,41.26,0,82.53,0,123.81,9.29-5.72,21-7.85,31.39-4,11.59,3.89,19.53,15.14,20.69,27.13,10-6.66,23.66-8,34.41-2.27,10.46,5.36,16.48,16.89,16.79,28.42,8.53-4.95,18.95-7.1,28.52-4,13.33,3.34,22.29,17.12,21.89,30.54-.06,25.62,0,51.24,0,76.85.47,4.79-2.53,8.72-4.76,12.64q-13,22.46-26,44.94c-1.62,3.27-4.77,5.8-8.59,5.44q-108,0-216,0c-5.65.55-8.25-5.23-11.19-8.94-15.29-20.6-30.8-41-46.13-61.59-7.43-9.49-5.48-23.08,1.15-32.44q23.72-42.12,47.22-84.35A31.6,31.6,0,0,1,224,388.43c7.29-2.9,15.35-2.23,22.87-.71,0-42,.06-84.06,0-126.09,0-7.24-.5-14.69,1.95-21.64A35.47,35.47,0,0,1,265.81,220.27Zm-7,31q-.06,93.23,0,186.48c-.09,5.6-3.86,10.15-6.27,15q19.29,19,38.76,37.83c2,2,4.56,4.43,3.93,7.66-.51,4.64-7.19,6.92-10.27,3.19-12.91-12.39-25.5-25.13-38.6-37.33C240,475,234,486.16,228,497.27c-1.33,2-2.47,4.9-5.28,5-4.51,1-8.78-4-6.47-8.23,9.49-17.86,19.66-35.38,29.22-53.19,2.07-3.7,1.27-8.07,1.42-12.1-.31-9.31.47-18.65-.31-27.94-9.74-5.67-23.74-2.54-29.2,7.59q-23.32,41.74-46.8,83.44c-2.34,4.31-5.62,8.64-5.17,13.86-.11,6.21,4.86,10.65,8.21,15.32,14.64,19.29,29.23,38.63,43.54,58.16,70.92,0,141.82.17,212.72-.06,8.43-13.81,16.15-28,24.47-41.9,2.05-3.87,5.19-7.64,4.67-12.31-.16-25.18,0-50.37-.07-75.55.2-12.18-12.78-21.64-24.35-18.23-7.31,1.47-13.63,7.77-14.25,15.32-.65,9.88.37,19.8-.4,29.67-.4,4.35-6.67,6.42-9.64,3.22-2.07-1.39-2.09-4-2.1-6.22q.09-24.43.07-48.89a20,20,0,0,0-5.39-14.12c-7-7.83-20.39-8.05-28-1a17.47,17.47,0,0,0-5.86,13.6c0,16.83,0,33.66.09,50.5.1,2.56-.41,5.75-3.1,6.82-3.83,2.22-9.38-.83-8.84-5.44-.15-20.23,0-40.46,0-60.69-.12-5.94.53-12-.6-17.83a19.56,19.56,0,0,0-18.43-15.19c-9.91-.92-20.42,6.56-21,16.85-.22,26,.33,52.08-.23,78.11-.18,5.62-9.14,6.73-11.09,1.66-1.15-3.83-.52-7.92-.67-11.87q.12-107.18,0-214.36c.18-11.25-8.54-22.18-20-23.26C271.74,225.87,258.63,237.8,258.8,251.27Z"/></svg>