<svg id="Layer_1" data-name="Layer 1" xmlns="http://www.w3.org/2000/svg" viewBox="0 0 664 664"><defs><style>.cls-1{fill:#9257ff;}.cls-2{fill:#fada0f;}.cls-3{fill:#fafbfb;}</style></defs><title>画板 2@3x-2</title><rect class="cls-1" width="664" height="664"/><path class="cls-2" d="M386.3,114.68c2.7-2.37,5-5.24,8-7.23,2.08-.93,3.25.88,4.39,2.27-4.58,22.91-8.48,46-12.73,68.93-.19,1.83-1.14,4.37.94,5.47q20.25,14.32,40.65,28.46c2.38,1.69,5,3.13,7.09,5.16a20.52,20.52,0,0,1,.12,3.42c-4,1.19-8.21,1.09-12.33,1.52-15.74,1.64-31.63,2.25-47.27,4.61-6,15.43-12.2,30.79-18.08,46.27a17.23,17.23,0,0,1-1.72,3.4c-1.33.9-3,.31-4.52.39-.82-19.14.45-38.35-1-57.47-1.63-12-9.17-23.19-20-28.66a38,38,0,0,0-19.91-4,59.44,59.44,0,0,1-3-6.75C300.41,163,293.7,145.65,287,128.27c-1-2.1.45-3.93,1.94-5.26,4.46,1.55,8.12,4.65,12.24,6.89q18.62,11.43,37.24,22.82c1.61.93,3.87,2.57,5.36.53Q365.08,134,386.3,114.68Z"/><path class="cls-2" d="M449,134.39c1.16-1.32,3-1,4.57-1.22,3.35,9.23,5.57,18.82,8.4,28.21,1,3.82,2.56,7.53,2.87,11.48a2.32,2.32,0,0,1-2.58,2.58c-15,.11-29.92-1.17-44.9-1.29a34,34,0,0,1-8.7-1c.08-1.6,0-3.43,1.51-4.43,6.89-6.15,14-12.1,20.79-18.33Q439.94,142.31,449,134.39Z"/><path class="cls-2" d="M250.33,151.73a3.15,3.15,0,0,1,5.27-.29c7.52,7.82,15,15.73,22.75,23.29l-.7.9,1.28-1c0,1.56.07,3.12.07,4.68-9.55.5-19.12.14-28.67.28-4.82,0-9.66.17-14.45-.47,0-3.44,2.09-6.21,3.72-9C243.27,164,246.41,157.62,250.33,151.73Z"/><path class="cls-3" d="M299.33,206.74a24.27,24.27,0,0,1,26.44,2.73,24.82,24.82,0,0,1,8.31,18.3c0,27.91,0,55.83,0,83.75,6.28-3.87,14.19-5.31,21.23-2.7,7.84,2.63,13.21,10.24,14,18.35,6.79-4.5,16-5.43,23.27-1.53,7.08,3.62,11.15,11.42,11.36,19.22,5.77-3.35,12.82-4.8,19.29-2.71,9,2.26,15.08,11.58,14.81,20.66,0,17.33,0,34.66,0,52,.32,3.24-1.71,5.9-3.22,8.55q-8.82,15.2-17.61,30.4a6,6,0,0,1-5.81,3.68q-73.07,0-146.12,0c-3.82.37-5.58-3.54-7.57-6-10.34-13.93-20.83-27.75-31.2-41.66-5-6.42-3.71-15.61.78-21.94q16-28.5,31.94-57.06a21.36,21.36,0,0,1,11.81-10.2c4.93-2,10.38-1.51,15.47-.48,0-28.43,0-56.86,0-85.29,0-4.9-.34-9.94,1.32-14.64A24,24,0,0,1,299.33,206.74Zm-4.74,21q0,63.06,0,126.14c-.06,3.79-2.61,6.87-4.24,10.12,8.7,8.57,17.41,17.13,26.22,25.59,1.37,1.39,3.08,3,2.66,5.18-.35,3.14-4.87,4.68-6.95,2.16-8.73-8.38-17.25-17-26.11-25.25-4.24,7.42-8.31,15-12.38,22.46-.9,1.36-1.67,3.32-3.57,3.4-3.05.67-5.94-2.73-4.38-5.57,6.42-12.08,13.3-23.93,19.77-36,1.4-2.5.86-5.46,1-8.18-.21-6.3.32-12.62-.21-18.9-6.59-3.84-16.06-1.72-19.75,5.13q-15.78,28.25-31.66,56.44c-1.58,2.92-3.8,5.85-3.5,9.38-.07,4.2,3.29,7.2,5.56,10.36,9.9,13.05,19.77,26.13,29.45,39.34,48,0,95.93.12,143.89,0,5.7-9.34,10.92-19,16.55-28.34,1.39-2.62,3.51-5.17,3.16-8.33-.11-17,0-34.07,0-51.1.14-8.24-8.64-14.64-16.47-12.33-4.94,1-9.22,5.25-9.64,10.36-.44,6.68.25,13.39-.27,20.07-.27,2.94-4.51,4.34-6.52,2.18-1.4-.94-1.41-2.72-1.42-4.21q.06-16.53,0-33.07a13.48,13.48,0,0,0-3.65-9.55c-4.75-5.3-13.79-5.45-18.94-.67a11.81,11.81,0,0,0-4,9.2c0,11.38,0,22.77.06,34.16.07,1.73-.28,3.89-2.1,4.61-2.59,1.5-6.34-.56-6-3.68-.1-13.68,0-27.37,0-41.05-.08-4,.36-8.09-.4-12.06a13.25,13.25,0,0,0-12.47-10.28c-6.7-.62-13.81,4.44-14.21,11.4-.15,17.6.22,35.23-.16,52.84-.12,3.8-6.18,4.55-7.5,1.12-.78-2.59-.35-5.36-.45-8q.07-72.5,0-145c.12-7.61-5.78-15-13.51-15.73C303.34,210.53,294.47,218.6,294.59,227.71Z"/><path class="cls-3" d="M187,482.9c18.85-.62,37.73-.23,56.59-.25q.19,16,0,31.94c-16.23.23-32.46-.13-48.69.16,2.09,1,5.45.7,6.61,2.77-.21.63-.65,1.89-.86,2.52,3.05-.08,6.11-.08,9.17,0l.12-3.8c4-.05,8-.08,12,0l.12,3.75c8,0,16-.11,24-.05.09,3.16.15,6.33.1,9.5-8,.1-16.07,0-24.1.07,0,1-.07,2.84-.09,3.79,6.73,0,13.45-.13,20.18-.08.06,2.95.08,5.91.09,8.87-6.76.16-13.53,0-20.29.08,0,1.3.09,2.61.13,3.92,9.68,0,19.36-.06,29,.08.11,3.29.12,6.59.06,9.88-23.89.19-47.79.11-71.68,0-.1-3.29-.09-6.59.06-9.87,10.1-.14,20.2-.11,30.3-.07,0-1.34.07-2.68.11-4-6.62,0-13.24.14-19.86-.08q-.07-3.69-.12-7.36l-2.67,3c-3.25-2.17-6.46-4.41-9.54-6.81,5.44-4.33,9.11-10.25,12.43-16.25H187C186.86,504,186.89,493.47,187,482.9Zm11.63,8.63c0,.73,0,2.21.05,3,11-.15,22,0,33.08-.16-.06-.71-.16-2.13-.21-2.85C220.54,491.58,209.57,491.56,198.6,491.53Zm0,11.05c0,.75.06,2.25.07,3,11,.15,22,0,32.92,0,0-.76,0-2.28,0-3.05C220.64,502.57,209.63,502.51,198.63,502.58Zm-7.14,30.69c6.12-.07,12.25,0,18.38,0,0-1.28,0-2.55,0-3.81q-7.7,0-15.39,0C193.48,530.74,192.48,532,191.49,533.27Z"/><path class="cls-3" d="M286.38,496.81c.43-5.81.31-11.63.6-17.44,4.39-.14,8.78-.15,13.16.12-.2,8.29-.5,16.59-1.52,24.83-.85,4.66,1.6,9,2.95,13.29,3.67,10.52,11.37,19.76,21.67,24.27,2.61,1.08,5.3,1.91,8,2.83-3,3.47-4.74,8-7.87,11.19-13.91-4-25.57-14.8-30-28.69-5.2,13.53-16.39,24.06-29.66,29.59a82.88,82.88,0,0,0-7.48-9.8c7.72-4,15.59-8.51,20.66-15.79C284.05,521.29,285.52,508.68,286.38,496.81Z"/><path class="cls-3" d="M316.09,493.88c4.07.93,7.91,2.62,11.88,3.9a110,110,0,0,1-10.69,23.15c-3.34-1.32-6.66-2.71-10-4.13C310.64,509.32,314,501.83,316.09,493.88Z"/><path class="cls-3" d="M259.37,516.87a72.48,72.48,0,0,0,8.89-22.74c3.71.78,7.36,1.82,11,2.89A68.32,68.32,0,0,1,270,522.38C266.45,520.51,262.88,518.75,259.37,516.87Z"/><path class="cls-3" d="M442.8,479a75.31,75.31,0,0,1,12.2-.23c-.11,10.43.47,20.89-.24,31.3a103.22,103.22,0,0,1-11.93-.35C442.86,499.45,442.82,489.21,442.8,479Z"/><path class="cls-3" d="M426.3,484.76a67.31,67.31,0,0,1,11.18,3.39c-3.93,8.36-8.44,16.59-14.86,23.33-3.05-2.2-6.22-4.24-9.45-6.15C418.41,499.07,423.24,492.38,426.3,484.76Z"/><path class="cls-3" d="M460.65,489.6a56.54,56.54,0,0,1,9.47-5c5.94,6.37,11.77,13.09,15.35,21.12-3.34,2.09-6.81,4-10.29,5.8A85.8,85.8,0,0,0,460.65,489.6Z"/><path class="cls-3" d="M442.82,512.18a99.48,99.48,0,0,1,12.21,0c0,2.29,0,4.58,0,6.89,9.73-.13,19.45,0,29.18,0q.18,5,0,9.92c-9.23.36-18.47.06-27.7.15a27.36,27.36,0,0,0,12.88,12.53c5.25,2.55,11.13,3,16.79,4-1.84,3.57-4.37,6.77-5.83,10.55-12.52-.68-25.08-7.18-30.8-18.71C443.26,549,430.06,553.7,418,556.54c-1.87-3.42-3.92-6.72-6-10,8.36-2.16,17.63-3.75,23.9-10.23a30.13,30.13,0,0,0,4.79-7.22c-9,0-17.91,0-26.87,0-.16-3.32-.16-6.64,0-10,9.59-.28,19.19,0,28.78-.22C442.61,516.66,442.7,514.42,442.82,512.18Z"/><path class="cls-3" d="M344,479c3.67-.19,7.36-.19,11-.07.06,5,0,10,0,14.95,2.61-.05,5.21-.05,7.82.08.09,3.49.12,7,0,10.47-2.63.06-5.25.06-7.87.06q0,5,0,10.1c2.37-.54,4.73-1.1,7.1-1.62a58.49,58.49,0,0,1,1.17,10.48q-4.07,1.23-8.16,2.37c-.09,6.68,0,13.36-.07,20-.07,2.77-.38,6-2.74,7.83-4,2.77-9.05,2.73-13.69,2.88-.87-3.54-1.93-7-3.11-10.47,2.74-.14,5.48-.24,8.22-.42.2-5.53.05-11.06.11-16.58q-4,1.18-8.05,2.4c-.66-3.72-2.24-7.6-1.74-11.31,3.2-1,6.5-1.68,9.75-2.51.06-4.38,0-8.76.08-13.13-3,0-6.08,0-9.11-.14,0-3.42,0-6.84.07-10.26,3-.23,6-.37,9-.52C343.88,488.74,343.79,483.86,344,479Z"/><path class="cls-3" d="M366.1,479c3.83-.08,7.67-.09,11.51,0,0,3.16,0,6.32,0,9.49a106,106,0,0,0,17.94-6.69,89.15,89.15,0,0,1,9.06,8.09c-8.62,4-18,5.8-27.23,7.84.37,1.9-.36,5.14,2.38,5.44a135.65,135.65,0,0,0,16.87,0c2.49-1.78,2-5.43,2.74-8.09,3.09,1.26,6.22,2.38,9.37,3.48-1,5-1.22,11.67-6.69,14-5.35,1.77-11.12.79-16.65,1.07-4.78-.18-9.87.52-14.33-1.58-3.71-1.89-5-6.35-5-10.22Q366,490.34,366.1,479Z"/><path class="cls-3" d="M365.72,517.92c4.2-.76,8.48-.46,12.72-.51,9,.05,18.06,0,27.1,0-.06,12.85.06,25.71,0,38.57-3.8.12-7.61.11-11.41,0-.08-.71-.23-2.12-.31-2.83-5.61.07-11.22.05-16.82.08-.19,1-.41,2.06-.65,3.09a90.91,90.91,0,0,1-10.57,0C365.71,543.5,365.87,530.71,365.72,517.92Zm11,9.18c0,1.31.08,2.62.13,3.94,5.71,0,11.42-.08,17.13,0,0-1.34.07-2.67.1-4C388.28,527,382.5,527.06,376.71,527.1Zm.07,12.77c0,1.27,0,2.54-.07,3.81,5.79,0,11.59,0,17.39,0,0-1.3-.08-2.59-.11-3.88C388.26,539.88,382.52,539.8,376.78,539.87Z"/></svg>