<svg xmlns="http://www.w3.org/2000/svg" viewBox="0 0 308.41 449.61"><defs><style>.cls-1{fill:#fada0f;}.cls-2{fill:#fafbfb;}</style></defs><title>资源 1</title><g id="图层_2" data-name="图层 2"><g id="Layer_1" data-name="Layer 1"><path class="cls-1" d="M208.5,7.49c2.7-2.37,5-5.24,8-7.23,2.08-.93,3.25.88,4.39,2.27-4.58,22.91-8.48,46-12.73,68.93-.19,1.83-1.14,4.37.94,5.47q20.25,14.32,40.65,28.46c2.38,1.69,5,3.13,7.09,5.16A20.52,20.52,0,0,1,257,114c-4,1.19-8.21,1.09-12.33,1.52-15.74,1.64-31.63,2.25-47.27,4.61-6,15.43-12.2,30.79-18.08,46.27a17.23,17.23,0,0,1-1.72,3.4c-1.33.9-3,.31-4.52.39-.82-19.14.45-38.35-1-57.47-1.63-12-9.17-23.19-20-28.66a38,38,0,0,0-19.91-4,59.44,59.44,0,0,1-3-6.75c-6.55-17.43-13.26-34.8-19.93-52.18-1-2.1.45-3.93,1.94-5.26,4.46,1.55,8.12,4.65,12.24,6.89Q142,34.14,160.65,45.53c1.61.93,3.87,2.57,5.36.53Q187.28,26.81,208.5,7.49Z"/><path class="cls-1" d="M271.23,27.2c1.16-1.32,3-1,4.57-1.22,3.35,9.23,5.57,18.82,8.4,28.21,1,3.82,2.56,7.53,2.87,11.48a2.32,2.32,0,0,1-2.58,2.58c-15,.11-29.92-1.17-44.9-1.29a34,34,0,0,1-8.7-1c.08-1.6,0-3.43,1.51-4.43,6.89-6.15,14-12.1,20.79-18.33Q262.15,35.11,271.23,27.2Z"/><path class="cls-1" d="M72.53,44.54a3.15,3.15,0,0,1,5.27-.29c7.52,7.82,15,15.73,22.75,23.29l-.7.9,1.28-1c0,1.56.07,3.12.07,4.68-9.55.5-19.12.14-28.67.28-4.82,0-9.66.17-14.45-.47,0-3.44,2.09-6.21,3.72-9C65.47,56.81,68.61,50.43,72.53,44.54Z"/><path class="cls-2" d="M121.53,99.55A24.27,24.27,0,0,1,148,102.28a24.82,24.82,0,0,1,8.31,18.3c0,27.91,0,55.83,0,83.75,6.28-3.87,14.19-5.31,21.23-2.7,7.84,2.63,13.21,10.24,14,18.35,6.79-4.5,16-5.43,23.27-1.53,7.08,3.62,11.15,11.42,11.36,19.22,5.77-3.35,12.82-4.8,19.29-2.71,9,2.26,15.08,11.58,14.81,20.66,0,17.33,0,34.66,0,52,.32,3.24-1.71,5.9-3.22,8.55q-8.82,15.19-17.61,30.4a6,6,0,0,1-5.81,3.68q-73.06,0-146.12,0c-3.82.37-5.58-3.54-7.57-6-10.34-13.93-20.83-27.75-31.2-41.66-5-6.42-3.71-15.61.78-21.94q16-28.5,31.94-57.06a21.36,21.36,0,0,1,11.81-10.2c4.93-2,10.38-1.51,15.47-.48,0-28.43,0-56.86,0-85.29,0-4.9-.34-9.94,1.32-14.64A24,24,0,0,1,121.53,99.55Zm-4.74,21q0,63.06,0,126.14c-.06,3.79-2.61,6.87-4.24,10.12,8.7,8.57,17.41,17.13,26.22,25.59,1.37,1.39,3.08,3,2.66,5.18-.35,3.14-4.87,4.68-7,2.16-8.73-8.38-17.25-17-26.11-25.25-4.24,7.42-8.31,15-12.38,22.46-.9,1.36-1.67,3.32-3.57,3.4-3,.67-5.94-2.73-4.38-5.57,6.42-12.08,13.3-23.93,19.77-36,1.4-2.5.86-5.46,1-8.18-.21-6.3.32-12.62-.21-18.9-6.59-3.84-16.06-1.72-19.75,5.13Q73,255.07,57.12,283.26c-1.58,2.92-3.8,5.85-3.5,9.38-.07,4.2,3.29,7.2,5.56,10.36,9.9,13.05,19.77,26.13,29.45,39.34,48,0,95.93.12,143.89,0,5.7-9.34,10.92-19,16.55-28.34,1.39-2.62,3.51-5.17,3.16-8.33-.11-17,0-34.07,0-51.1.14-8.24-8.64-14.64-16.47-12.33-4.94,1-9.22,5.25-9.64,10.36-.44,6.68.25,13.39-.27,20.07-.27,2.94-4.51,4.34-6.52,2.18-1.4-.94-1.41-2.72-1.42-4.21q.06-16.53,0-33.07a13.48,13.48,0,0,0-3.65-9.55c-4.75-5.3-13.79-5.45-18.94-.67a11.81,11.81,0,0,0-4,9.2c0,11.38,0,22.77.06,34.16.07,1.73-.28,3.89-2.1,4.61-2.59,1.5-6.34-.56-6-3.68-.1-13.68,0-27.37,0-41.05-.08-4,.36-8.09-.4-12.06a13.25,13.25,0,0,0-12.47-10.28c-6.7-.62-13.81,4.44-14.21,11.4-.15,17.6.22,35.23-.16,52.84-.12,3.8-6.18,4.55-7.5,1.12-.78-2.59-.35-5.36-.45-8q.08-72.49,0-145c.12-7.61-5.78-15-13.51-15.73C125.54,103.34,116.67,111.41,116.79,120.52Z"/><path class="cls-2" d="M9.17,375.71c18.85-.62,37.73-.23,56.59-.25q.19,16,0,31.94c-16.23.23-32.46-.13-48.69.16,2.09,1,5.45.7,6.61,2.77-.21.63-.65,1.89-.86,2.52,3.05-.08,6.11-.08,9.17,0l.12-3.8c4-.05,8-.08,12,0q.06,1.86.12,3.75c8,0,16-.11,24-.05.09,3.16.15,6.33.1,9.5-8,.1-16.07,0-24.1.07,0,.95-.07,2.84-.09,3.79,6.73,0,13.45-.13,20.18-.08.06,3,.08,5.91.09,8.87-6.76.16-13.53,0-20.29.08,0,1.3.09,2.61.13,3.92,9.68.05,19.36-.06,29,.08.11,3.29.12,6.59.06,9.88-23.89.19-47.79.11-71.68,0-.1-3.29-.09-6.59.06-9.87,10.1-.14,20.2-.11,30.3-.07,0-1.34.07-2.68.11-4-6.62-.05-13.24.14-19.86-.08q-.08-3.69-.12-7.36l-2.67,3c-3.25-2.17-6.46-4.41-9.54-6.81,5.44-4.33,9.11-10.25,12.43-16.25H9.23C9.06,396.85,9.09,386.28,9.17,375.71Zm11.63,8.63c0,.73,0,2.21.05,3,11-.15,22,0,33.08-.16-.06-.71-.16-2.13-.21-2.85C42.74,384.39,31.77,384.37,20.8,384.34Zm0,11.05c0,.75.06,2.25.07,3,11,.15,22,0,32.92,0,0-.76,0-2.28,0-3.05C42.84,395.38,31.83,395.32,20.83,395.39Zm-7.14,30.69c6.12-.07,12.25,0,18.38,0,0-1.28,0-2.55,0-3.81q-7.7,0-15.39,0C15.68,423.55,14.68,424.81,13.69,426.08Z"/><path class="cls-2" d="M108.58,389.62c.43-5.81.31-11.63.6-17.44,4.39-.14,8.78-.15,13.16.12-.2,8.29-.5,16.59-1.52,24.83-.85,4.66,1.6,9,3,13.29,3.67,10.52,11.37,19.76,21.67,24.27,2.61,1.08,5.3,1.91,8,2.83-3,3.47-4.74,8-7.87,11.19-13.91-4-25.57-14.8-30-28.69-5.2,13.53-16.39,24.06-29.66,29.59a82.88,82.88,0,0,0-7.48-9.8c7.72-4,15.59-8.51,20.66-15.79C106.25,414.1,107.72,401.49,108.58,389.62Z"/><path class="cls-2" d="M138.29,386.69c4.07.93,7.91,2.62,11.88,3.9a110,110,0,0,1-10.69,23.15c-3.34-1.32-6.66-2.71-10-4.13C132.84,402.13,136.21,394.64,138.29,386.69Z"/><path class="cls-2" d="M81.57,409.68a72.48,72.48,0,0,0,8.89-22.74c3.71.78,7.36,1.82,11,2.89a68.32,68.32,0,0,1-9.29,25.36C88.65,413.32,85.08,411.56,81.57,409.68Z"/><path class="cls-2" d="M265,371.78a75.31,75.31,0,0,1,12.2-.23c-.11,10.43.47,20.89-.24,31.3A103.22,103.22,0,0,1,265,402.5C265.06,392.26,265,382,265,371.78Z"/><path class="cls-2" d="M248.5,377.57A67.31,67.31,0,0,1,259.68,381c-3.93,8.36-8.44,16.59-14.86,23.33-3-2.2-6.22-4.24-9.45-6.15C240.61,391.88,245.44,385.19,248.5,377.57Z"/><path class="cls-2" d="M282.85,382.41a56.54,56.54,0,0,1,9.47-5c5.94,6.37,11.77,13.09,15.35,21.12-3.34,2.09-6.81,4-10.29,5.8A85.8,85.8,0,0,0,282.85,382.41Z"/><path class="cls-2" d="M265,405a99.48,99.48,0,0,1,12.21,0c0,2.29,0,4.58,0,6.89,9.73-.13,19.45,0,29.18,0q.18,4.95,0,9.92c-9.23.36-18.47.06-27.7.15a27.36,27.36,0,0,0,12.88,12.53c5.25,2.55,11.13,3,16.79,4-1.84,3.57-4.37,6.77-5.83,10.55-12.52-.68-25.08-7.18-30.8-18.71-6.32,11.51-19.52,16.23-31.56,19.07-1.87-3.42-3.92-6.72-6-10,8.36-2.16,17.63-3.75,23.9-10.23a30.13,30.13,0,0,0,4.79-7.22c-9,0-17.91,0-26.87,0-.16-3.32-.16-6.64,0-9.95,9.59-.28,19.19-.05,28.78-.22C264.81,409.47,264.9,407.23,265,405Z"/><path class="cls-2" d="M166.2,371.8c3.67-.19,7.36-.19,11-.07.06,5,0,10,0,14.95,2.61-.05,5.21-.05,7.82.08.09,3.49.12,7,0,10.47-2.63.06-5.25.06-7.87.06q0,5,0,10.1c2.37-.54,4.73-1.1,7.1-1.62a58.49,58.49,0,0,1,1.17,10.48q-4.06,1.23-8.16,2.37c-.09,6.68,0,13.36-.07,20-.07,2.77-.38,6-2.74,7.83-4,2.77-9.05,2.73-13.69,2.88-.87-3.54-1.93-7-3.11-10.47,2.74-.14,5.48-.24,8.22-.42.2-5.53.05-11.06.11-16.58q-4,1.19-8.05,2.4c-.66-3.72-2.24-7.6-1.74-11.31,3.2-1,6.5-1.68,9.75-2.51.06-4.38,0-8.76.08-13.13-3,0-6.08,0-9.11-.14,0-3.42,0-6.84.07-10.26,3-.23,6-.37,9-.52C166.08,381.55,166,376.67,166.2,371.8Z"/><path class="cls-2" d="M188.3,371.77c3.83-.08,7.67-.09,11.51,0,0,3.16,0,6.32,0,9.49a106,106,0,0,0,17.94-6.69,89.15,89.15,0,0,1,9.06,8.09c-8.62,4-18,5.8-27.23,7.84.37,1.9-.36,5.14,2.38,5.44a135.65,135.65,0,0,0,16.87,0c2.49-1.78,2-5.43,2.74-8.09,3.09,1.26,6.22,2.38,9.37,3.48-1,5-1.22,11.67-6.69,14-5.35,1.77-11.12.79-16.65,1.07-4.78-.18-9.87.52-14.33-1.58-3.71-1.89-5-6.35-5-10.22Q188.25,383.15,188.3,371.77Z"/><path class="cls-2" d="M187.92,410.73c4.2-.76,8.48-.46,12.72-.51,9,0,18.06-.05,27.1,0-.06,12.85.06,25.71,0,38.57-3.8.12-7.61.11-11.41,0-.08-.71-.23-2.12-.31-2.83-5.61.07-11.22,0-16.82.08-.19,1-.41,2.06-.65,3.09a90.91,90.91,0,0,1-10.57,0C187.91,436.31,188.07,423.52,187.92,410.73Zm11,9.18c0,1.31.08,2.62.13,3.94,5.71,0,11.42-.08,17.13,0,0-1.34.07-2.67.1-4C210.48,419.84,204.7,419.87,198.91,419.91Zm.07,12.77c0,1.27,0,2.54-.07,3.81,5.79,0,11.59,0,17.39,0,0-1.3-.08-2.59-.11-3.88C210.46,432.69,204.72,432.61,199,432.68Z"/></g></g></svg>